<mxfile host="app.diagrams.net" modified="2024-03-21T23:42:02.124Z" agent="Mozilla/5.0 (Windows NT 10.0; Win64; x64) AppleWebKit/537.36 (KHTML, like Gecko) Chrome/121.0.0.0 Safari/537.36" etag="qWvVlwvNVAOAhcTo7cr_" version="24.0.7" type="device">
  <diagram name="Página-1" id="DFA_Jf3HSllGsBU9AlRN">
    <mxGraphModel dx="1434" dy="790" grid="1" gridSize="10" guides="1" tooltips="1" connect="1" arrows="1" fold="1" page="1" pageScale="1" pageWidth="827" pageHeight="1169" math="0" shadow="0">
      <root>
        <mxCell id="0" />
        <mxCell id="1" parent="0" />
        <mxCell id="JrXl5plI6y0GH8eJJ9yN-5" style="edgeStyle=orthogonalEdgeStyle;rounded=0;orthogonalLoop=1;jettySize=auto;html=1;endArrow=none;endFill=0;" edge="1" parent="1" source="JrXl5plI6y0GH8eJJ9yN-2" target="JrXl5plI6y0GH8eJJ9yN-3">
          <mxGeometry relative="1" as="geometry" />
        </mxCell>
        <mxCell id="JrXl5plI6y0GH8eJJ9yN-2" value="Emissor&lt;div&gt;&lt;br&gt;&lt;/div&gt;" style="shape=umlActor;verticalLabelPosition=bottom;verticalAlign=top;html=1;" vertex="1" parent="1">
          <mxGeometry x="160" y="225" width="30" height="60" as="geometry" />
        </mxCell>
        <mxCell id="JrXl5plI6y0GH8eJJ9yN-3" value="Emitir Ata&lt;span style=&quot;white-space: pre;&quot;&gt;&#x9;&lt;/span&gt;" style="ellipse;whiteSpace=wrap;html=1;" vertex="1" parent="1">
          <mxGeometry x="350" y="220" width="140" height="70" as="geometry" />
        </mxCell>
        <mxCell id="JrXl5plI6y0GH8eJJ9yN-4" value="Sistema de Emissão de Ata" style="shape=umlFrame;whiteSpace=wrap;html=1;pointerEvents=0;width=160;height=30;" vertex="1" parent="1">
          <mxGeometry x="270" y="120" width="320" height="290" as="geometry" />
        </mxCell>
      </root>
    </mxGraphModel>
  </diagram>
</mxfile>
